<svg xmlns="http://www.w3.org/2000/svg" width="24" height="24" viewBox="0 0 64 64" role="img" aria-label="Translay desktop icon V3, 24 pixels">
  <defs>
    <linearGradient id="body" x1="19" y1="8" x2="43" y2="57" gradientUnits="userSpaceOnUse">
      <stop offset="0" stop-color="#5D8A85"/><stop offset="1" stop-color="#514A6D"/>
    </linearGradient>
    <path id="mark" d="M13 10.6C10.1 10.6 8.5 12.4 8.8 15C9.1 17.5 11.2 18.7 13.8 18.2C17.7 17.7 21.2 17.7 24.6 18.1L25.1 48.1C25.4 53.5 28 56.3 32 56.3C36 56.3 38.6 53.5 38.9 48.1L39.4 18.1C42.8 17.7 46.3 17.7 50.2 18.2C52.8 18.7 54.9 17.5 55.2 15C55.5 12.4 53.9 10.6 51 10.6C44.6 10.3 38.2 10.8 32 10.9C25.8 10.8 19.4 10.3 13 10.6Z"/>
  </defs>
  <use href="#mark" fill="url(#body)"/>
  <use href="#mark" fill="none" stroke="#101827" stroke-width="1.55" opacity=".36" transform="translate(.4 .5)"/>
  <use href="#mark" fill="none" stroke="#E1ECE9" stroke-width="1.5" opacity=".28" transform="translate(-.22 -.28)"/>
  <path d="M34.6 23.8C31.2 25.2 30 28.7 31.2 31.6C32.2 33.8 34.1 35 34.4 37.5C34.7 40.3 32.6 43.4 29.7 46" fill="none" stroke="#29253F" stroke-width="5" stroke-linecap="round" stroke-linejoin="round" opacity=".88"/>
</svg>
